<mxfile host="Electron" agent="Mozilla/5.0 (Windows NT 10.0; Win64; x64) AppleWebKit/537.36 (KHTML, like Gecko) draw.io/25.0.2 Chrome/128.0.6613.186 Electron/32.2.5 Safari/537.36" version="25.0.2">
  <diagram name="Página-1" id="cUuC6Gz3O_HACW127Klm">
    <mxGraphModel dx="1912" dy="2348" grid="1" gridSize="10" guides="1" tooltips="1" connect="1" arrows="1" fold="1" page="1" pageScale="1" pageWidth="827" pageHeight="1169" math="0" shadow="0">
      <root>
        <mxCell id="0" />
        <mxCell id="1" parent="0" />
        <mxCell id="R5uc6-CQnrBGBFZ5KooZ-49" style="rounded=0;orthogonalLoop=1;jettySize=auto;html=1;exitX=0.75;exitY=0.1;exitDx=0;exitDy=0;exitPerimeter=0;entryX=0;entryY=0.5;entryDx=0;entryDy=0;endArrow=none;endFill=0;" parent="1" source="RJvG36Jgqyz68Tepp9Q1-1" target="R5uc6-CQnrBGBFZ5KooZ-47" edge="1">
          <mxGeometry relative="1" as="geometry" />
        </mxCell>
        <mxCell id="RJvG36Jgqyz68Tepp9Q1-1" value="Usuario" style="shape=umlActor;verticalLabelPosition=bottom;verticalAlign=top;html=1;outlineConnect=0;" parent="1" vertex="1">
          <mxGeometry x="50" y="140" width="30" height="60" as="geometry" />
        </mxCell>
        <mxCell id="RJvG36Jgqyz68Tepp9Q1-2" value="Autenticazión" style="ellipse;whiteSpace=wrap;html=1;" parent="1" vertex="1">
          <mxGeometry x="510" y="585" width="120" height="80" as="geometry" />
        </mxCell>
        <mxCell id="t33CJA8208JYHmQ1H5E5-12" style="rounded=0;orthogonalLoop=1;jettySize=auto;html=1;exitX=0.5;exitY=1;exitDx=0;exitDy=0;dashed=1;" parent="1" source="t33CJA8208JYHmQ1H5E5-1" target="RJvG36Jgqyz68Tepp9Q1-2" edge="1">
          <mxGeometry relative="1" as="geometry" />
        </mxCell>
        <mxCell id="t33CJA8208JYHmQ1H5E5-13" value="&amp;lt;&amp;lt; include &amp;gt;&amp;gt;" style="edgeLabel;html=1;align=center;verticalAlign=middle;resizable=0;points=[];" parent="t33CJA8208JYHmQ1H5E5-12" vertex="1" connectable="0">
          <mxGeometry x="-0.1135" y="1" relative="1" as="geometry">
            <mxPoint as="offset" />
          </mxGeometry>
        </mxCell>
        <mxCell id="t33CJA8208JYHmQ1H5E5-1" value="Gestionar libro" style="ellipse;whiteSpace=wrap;html=1;" parent="1" vertex="1">
          <mxGeometry x="230" y="70" width="120" height="80" as="geometry" />
        </mxCell>
        <mxCell id="R5uc6-CQnrBGBFZ5KooZ-57" style="rounded=0;orthogonalLoop=1;jettySize=auto;html=1;exitX=1;exitY=0;exitDx=0;exitDy=0;entryX=0;entryY=0.5;entryDx=0;entryDy=0;dashed=1;endArrow=none;endFill=0;startArrow=classic;startFill=1;" parent="1" source="t33CJA8208JYHmQ1H5E5-2" target="R5uc6-CQnrBGBFZ5KooZ-55" edge="1">
          <mxGeometry relative="1" as="geometry" />
        </mxCell>
        <mxCell id="R5uc6-CQnrBGBFZ5KooZ-60" value="&amp;lt;&amp;lt; extend &amp;gt;&amp;gt;" style="edgeLabel;html=1;align=center;verticalAlign=middle;resizable=0;points=[];" parent="R5uc6-CQnrBGBFZ5KooZ-57" vertex="1" connectable="0">
          <mxGeometry x="-0.1468" y="4" relative="1" as="geometry">
            <mxPoint as="offset" />
          </mxGeometry>
        </mxCell>
        <mxCell id="R5uc6-CQnrBGBFZ5KooZ-58" style="rounded=0;orthogonalLoop=1;jettySize=auto;html=1;exitX=1;exitY=0.5;exitDx=0;exitDy=0;entryX=0;entryY=0.5;entryDx=0;entryDy=0;startArrow=classic;startFill=1;endArrow=none;endFill=0;dashed=1;" parent="1" source="t33CJA8208JYHmQ1H5E5-2" target="R5uc6-CQnrBGBFZ5KooZ-56" edge="1">
          <mxGeometry relative="1" as="geometry" />
        </mxCell>
        <mxCell id="R5uc6-CQnrBGBFZ5KooZ-59" value="&amp;lt;&amp;lt; extend &amp;gt;&amp;gt;" style="edgeLabel;html=1;align=center;verticalAlign=middle;resizable=0;points=[];" parent="R5uc6-CQnrBGBFZ5KooZ-58" vertex="1" connectable="0">
          <mxGeometry x="-0.0178" y="-2" relative="1" as="geometry">
            <mxPoint as="offset" />
          </mxGeometry>
        </mxCell>
        <mxCell id="t33CJA8208JYHmQ1H5E5-2" value="Buscar libro" style="ellipse;whiteSpace=wrap;html=1;" parent="1" vertex="1">
          <mxGeometry x="390" y="-120" width="120" height="80" as="geometry" />
        </mxCell>
        <mxCell id="t33CJA8208JYHmQ1H5E5-3" value="Pedir préstamo libro" style="ellipse;whiteSpace=wrap;html=1;" parent="1" vertex="1">
          <mxGeometry x="510" y="70" width="120" height="80" as="geometry" />
        </mxCell>
        <mxCell id="Hn9pBRJLNFqxEXgLAd93-1" style="rounded=0;orthogonalLoop=1;jettySize=auto;html=1;exitX=0.5;exitY=1;exitDx=0;exitDy=0;entryX=0;entryY=0;entryDx=0;entryDy=0;dashed=1;endArrow=none;endFill=0;startArrow=classic;startFill=1;" parent="1" source="t33CJA8208JYHmQ1H5E5-4" target="t33CJA8208JYHmQ1H5E5-41" edge="1">
          <mxGeometry relative="1" as="geometry" />
        </mxCell>
        <mxCell id="Hn9pBRJLNFqxEXgLAd93-2" value="&amp;lt;&amp;lt; extend &amp;gt;&amp;gt;" style="edgeLabel;html=1;align=center;verticalAlign=middle;resizable=0;points=[];" parent="Hn9pBRJLNFqxEXgLAd93-1" vertex="1" connectable="0">
          <mxGeometry x="-0.2458" y="-3" relative="1" as="geometry">
            <mxPoint as="offset" />
          </mxGeometry>
        </mxCell>
        <mxCell id="t33CJA8208JYHmQ1H5E5-4" value="Devolución libro" style="ellipse;whiteSpace=wrap;html=1;" parent="1" vertex="1">
          <mxGeometry x="480" y="190" width="120" height="80" as="geometry" />
        </mxCell>
        <mxCell id="t33CJA8208JYHmQ1H5E5-5" value="Registrar préstamo" style="ellipse;whiteSpace=wrap;html=1;" parent="1" vertex="1">
          <mxGeometry x="770" y="60" width="120" height="80" as="geometry" />
        </mxCell>
        <mxCell id="t33CJA8208JYHmQ1H5E5-6" value="Calcular fecha devolución" style="ellipse;whiteSpace=wrap;html=1;" parent="1" vertex="1">
          <mxGeometry x="770" y="170" width="120" height="80" as="geometry" />
        </mxCell>
        <mxCell id="R5uc6-CQnrBGBFZ5KooZ-52" style="rounded=0;orthogonalLoop=1;jettySize=auto;html=1;exitX=0.25;exitY=0.1;exitDx=0;exitDy=0;exitPerimeter=0;entryX=1;entryY=0.5;entryDx=0;entryDy=0;endArrow=none;endFill=0;" parent="1" source="t33CJA8208JYHmQ1H5E5-8" target="R5uc6-CQnrBGBFZ5KooZ-48" edge="1">
          <mxGeometry relative="1" as="geometry" />
        </mxCell>
        <mxCell id="R5uc6-CQnrBGBFZ5KooZ-53" style="rounded=0;orthogonalLoop=1;jettySize=auto;html=1;exitX=0;exitY=0.3333333333333333;exitDx=0;exitDy=0;exitPerimeter=0;endArrow=none;endFill=0;entryX=1;entryY=0.5;entryDx=0;entryDy=0;" parent="1" source="t33CJA8208JYHmQ1H5E5-8" target="R5uc6-CQnrBGBFZ5KooZ-54" edge="1">
          <mxGeometry relative="1" as="geometry">
            <mxPoint x="960" y="-50" as="targetPoint" />
          </mxGeometry>
        </mxCell>
        <mxCell id="t33CJA8208JYHmQ1H5E5-8" value="Sistema" style="shape=umlActor;verticalLabelPosition=bottom;verticalAlign=top;html=1;outlineConnect=0;" parent="1" vertex="1">
          <mxGeometry x="1280" y="80" width="30" height="60" as="geometry" />
        </mxCell>
        <mxCell id="t33CJA8208JYHmQ1H5E5-9" value="Gestión préstamo" style="ellipse;whiteSpace=wrap;html=1;" parent="1" vertex="1">
          <mxGeometry x="990" y="70" width="120" height="80" as="geometry" />
        </mxCell>
        <mxCell id="t33CJA8208JYHmQ1H5E5-10" style="edgeStyle=orthogonalEdgeStyle;rounded=0;orthogonalLoop=1;jettySize=auto;html=1;entryX=0.5;entryY=0.5;entryDx=0;entryDy=0;entryPerimeter=0;endArrow=none;endFill=0;" parent="1" source="t33CJA8208JYHmQ1H5E5-9" target="t33CJA8208JYHmQ1H5E5-8" edge="1">
          <mxGeometry relative="1" as="geometry" />
        </mxCell>
        <mxCell id="t33CJA8208JYHmQ1H5E5-11" style="rounded=0;orthogonalLoop=1;jettySize=auto;html=1;exitX=0.5;exitY=0.5;exitDx=0;exitDy=0;exitPerimeter=0;entryX=0.04;entryY=0.613;entryDx=0;entryDy=0;entryPerimeter=0;endArrow=none;endFill=0;" parent="1" source="RJvG36Jgqyz68Tepp9Q1-1" target="t33CJA8208JYHmQ1H5E5-1" edge="1">
          <mxGeometry relative="1" as="geometry" />
        </mxCell>
        <mxCell id="t33CJA8208JYHmQ1H5E5-14" style="rounded=0;orthogonalLoop=1;jettySize=auto;html=1;exitX=1;exitY=0;exitDx=0;exitDy=0;entryX=-0.007;entryY=0.678;entryDx=0;entryDy=0;entryPerimeter=0;dashed=1;startArrow=classic;startFill=1;endArrow=none;endFill=0;" parent="1" source="t33CJA8208JYHmQ1H5E5-1" target="t33CJA8208JYHmQ1H5E5-2" edge="1">
          <mxGeometry relative="1" as="geometry" />
        </mxCell>
        <mxCell id="t33CJA8208JYHmQ1H5E5-15" value="&amp;lt;&amp;lt; extend &amp;gt;&amp;gt;" style="edgeLabel;html=1;align=center;verticalAlign=middle;resizable=0;points=[];" parent="t33CJA8208JYHmQ1H5E5-14" vertex="1" connectable="0">
          <mxGeometry x="0.0869" y="-2" relative="1" as="geometry">
            <mxPoint as="offset" />
          </mxGeometry>
        </mxCell>
        <mxCell id="t33CJA8208JYHmQ1H5E5-16" style="rounded=0;orthogonalLoop=1;jettySize=auto;html=1;exitX=1;exitY=0.5;exitDx=0;exitDy=0;entryX=0;entryY=0.5;entryDx=0;entryDy=0;dashed=1;startArrow=classic;startFill=1;endArrow=none;endFill=0;" parent="1" source="t33CJA8208JYHmQ1H5E5-1" target="t33CJA8208JYHmQ1H5E5-3" edge="1">
          <mxGeometry relative="1" as="geometry">
            <mxPoint x="360" y="118" as="sourcePoint" />
            <mxPoint x="497" y="50" as="targetPoint" />
          </mxGeometry>
        </mxCell>
        <mxCell id="t33CJA8208JYHmQ1H5E5-17" value="&amp;lt;&amp;lt; extend &amp;gt;&amp;gt;" style="edgeLabel;html=1;align=center;verticalAlign=middle;resizable=0;points=[];" parent="t33CJA8208JYHmQ1H5E5-16" vertex="1" connectable="0">
          <mxGeometry x="0.0869" y="-2" relative="1" as="geometry">
            <mxPoint as="offset" />
          </mxGeometry>
        </mxCell>
        <mxCell id="t33CJA8208JYHmQ1H5E5-18" style="rounded=0;orthogonalLoop=1;jettySize=auto;html=1;exitX=1;exitY=1;exitDx=0;exitDy=0;entryX=0;entryY=0.5;entryDx=0;entryDy=0;dashed=1;startArrow=classic;startFill=1;endArrow=none;endFill=0;" parent="1" source="t33CJA8208JYHmQ1H5E5-1" target="t33CJA8208JYHmQ1H5E5-4" edge="1">
          <mxGeometry relative="1" as="geometry">
            <mxPoint x="360" y="180" as="sourcePoint" />
            <mxPoint x="497" y="112" as="targetPoint" />
          </mxGeometry>
        </mxCell>
        <mxCell id="t33CJA8208JYHmQ1H5E5-19" value="&amp;lt;&amp;lt; extend &amp;gt;&amp;gt;" style="edgeLabel;html=1;align=center;verticalAlign=middle;resizable=0;points=[];" parent="t33CJA8208JYHmQ1H5E5-18" vertex="1" connectable="0">
          <mxGeometry x="0.0869" y="-2" relative="1" as="geometry">
            <mxPoint as="offset" />
          </mxGeometry>
        </mxCell>
        <mxCell id="t33CJA8208JYHmQ1H5E5-20" style="rounded=0;orthogonalLoop=1;jettySize=auto;html=1;exitX=1;exitY=0.5;exitDx=0;exitDy=0;dashed=1;entryX=0;entryY=0.5;entryDx=0;entryDy=0;" parent="1" source="t33CJA8208JYHmQ1H5E5-3" target="t33CJA8208JYHmQ1H5E5-5" edge="1">
          <mxGeometry relative="1" as="geometry">
            <mxPoint x="730" y="110" as="sourcePoint" />
            <mxPoint x="762" y="270" as="targetPoint" />
          </mxGeometry>
        </mxCell>
        <mxCell id="t33CJA8208JYHmQ1H5E5-21" value="&amp;lt;&amp;lt; include &amp;gt;&amp;gt;" style="edgeLabel;html=1;align=center;verticalAlign=middle;resizable=0;points=[];" parent="t33CJA8208JYHmQ1H5E5-20" vertex="1" connectable="0">
          <mxGeometry x="-0.1135" y="1" relative="1" as="geometry">
            <mxPoint as="offset" />
          </mxGeometry>
        </mxCell>
        <mxCell id="t33CJA8208JYHmQ1H5E5-22" style="rounded=0;orthogonalLoop=1;jettySize=auto;html=1;exitX=1;exitY=0.5;exitDx=0;exitDy=0;dashed=1;entryX=0;entryY=0.5;entryDx=0;entryDy=0;" parent="1" source="t33CJA8208JYHmQ1H5E5-3" target="t33CJA8208JYHmQ1H5E5-6" edge="1">
          <mxGeometry relative="1" as="geometry">
            <mxPoint x="680" y="150" as="sourcePoint" />
            <mxPoint x="712" y="310" as="targetPoint" />
          </mxGeometry>
        </mxCell>
        <mxCell id="t33CJA8208JYHmQ1H5E5-23" value="&amp;lt;&amp;lt; include &amp;gt;&amp;gt;" style="edgeLabel;html=1;align=center;verticalAlign=middle;resizable=0;points=[];" parent="t33CJA8208JYHmQ1H5E5-22" vertex="1" connectable="0">
          <mxGeometry x="-0.1135" y="1" relative="1" as="geometry">
            <mxPoint as="offset" />
          </mxGeometry>
        </mxCell>
        <mxCell id="t33CJA8208JYHmQ1H5E5-24" style="rounded=0;orthogonalLoop=1;jettySize=auto;html=1;exitX=1;exitY=0.5;exitDx=0;exitDy=0;entryX=0;entryY=0.5;entryDx=0;entryDy=0;dashed=1;startArrow=classic;startFill=1;endArrow=none;endFill=0;" parent="1" source="t33CJA8208JYHmQ1H5E5-5" target="t33CJA8208JYHmQ1H5E5-9" edge="1">
          <mxGeometry relative="1" as="geometry">
            <mxPoint x="930" y="220" as="sourcePoint" />
            <mxPoint x="1090" y="220" as="targetPoint" />
          </mxGeometry>
        </mxCell>
        <mxCell id="t33CJA8208JYHmQ1H5E5-25" value="&amp;lt;&amp;lt; include &amp;gt;&amp;gt;" style="edgeLabel;html=1;align=center;verticalAlign=middle;resizable=0;points=[];" parent="t33CJA8208JYHmQ1H5E5-24" vertex="1" connectable="0">
          <mxGeometry x="0.0869" y="-2" relative="1" as="geometry">
            <mxPoint as="offset" />
          </mxGeometry>
        </mxCell>
        <mxCell id="t33CJA8208JYHmQ1H5E5-26" style="rounded=0;orthogonalLoop=1;jettySize=auto;html=1;exitX=1;exitY=0.5;exitDx=0;exitDy=0;entryX=0;entryY=0.5;entryDx=0;entryDy=0;dashed=1;startArrow=classic;startFill=1;endArrow=none;endFill=0;" parent="1" source="t33CJA8208JYHmQ1H5E5-6" target="t33CJA8208JYHmQ1H5E5-9" edge="1">
          <mxGeometry relative="1" as="geometry">
            <mxPoint x="930" y="229.5" as="sourcePoint" />
            <mxPoint x="1090" y="229.5" as="targetPoint" />
          </mxGeometry>
        </mxCell>
        <mxCell id="t33CJA8208JYHmQ1H5E5-27" value="&amp;lt;&amp;lt; include &amp;gt;&amp;gt;" style="edgeLabel;html=1;align=center;verticalAlign=middle;resizable=0;points=[];" parent="t33CJA8208JYHmQ1H5E5-26" vertex="1" connectable="0">
          <mxGeometry x="0.0869" y="-2" relative="1" as="geometry">
            <mxPoint as="offset" />
          </mxGeometry>
        </mxCell>
        <mxCell id="t33CJA8208JYHmQ1H5E5-28" value="Actualizar libro" style="ellipse;whiteSpace=wrap;html=1;" parent="1" vertex="1">
          <mxGeometry x="770" y="290" width="120" height="80" as="geometry" />
        </mxCell>
        <mxCell id="t33CJA8208JYHmQ1H5E5-29" value="Verificar fecha" style="ellipse;whiteSpace=wrap;html=1;" parent="1" vertex="1">
          <mxGeometry x="770" y="440" width="120" height="80" as="geometry" />
        </mxCell>
        <mxCell id="t33CJA8208JYHmQ1H5E5-30" style="rounded=0;orthogonalLoop=1;jettySize=auto;html=1;exitX=1;exitY=0.5;exitDx=0;exitDy=0;dashed=1;entryX=0;entryY=0.5;entryDx=0;entryDy=0;" parent="1" target="t33CJA8208JYHmQ1H5E5-28" edge="1">
          <mxGeometry relative="1" as="geometry">
            <mxPoint x="590" y="250" as="sourcePoint" />
            <mxPoint x="762" y="525" as="targetPoint" />
          </mxGeometry>
        </mxCell>
        <mxCell id="t33CJA8208JYHmQ1H5E5-31" value="&amp;lt;&amp;lt; include &amp;gt;&amp;gt;" style="edgeLabel;html=1;align=center;verticalAlign=middle;resizable=0;points=[];" parent="t33CJA8208JYHmQ1H5E5-30" vertex="1" connectable="0">
          <mxGeometry x="-0.1135" y="1" relative="1" as="geometry">
            <mxPoint as="offset" />
          </mxGeometry>
        </mxCell>
        <mxCell id="t33CJA8208JYHmQ1H5E5-32" style="rounded=0;orthogonalLoop=1;jettySize=auto;html=1;dashed=1;entryX=0;entryY=0.5;entryDx=0;entryDy=0;exitX=1;exitY=0.5;exitDx=0;exitDy=0;" parent="1" target="t33CJA8208JYHmQ1H5E5-29" edge="1">
          <mxGeometry relative="1" as="geometry">
            <mxPoint x="590" y="250" as="sourcePoint" />
            <mxPoint x="712" y="565" as="targetPoint" />
          </mxGeometry>
        </mxCell>
        <mxCell id="t33CJA8208JYHmQ1H5E5-33" value="&amp;lt;&amp;lt; include &amp;gt;&amp;gt;" style="edgeLabel;html=1;align=center;verticalAlign=middle;resizable=0;points=[];" parent="t33CJA8208JYHmQ1H5E5-32" vertex="1" connectable="0">
          <mxGeometry x="-0.1135" y="1" relative="1" as="geometry">
            <mxPoint as="offset" />
          </mxGeometry>
        </mxCell>
        <mxCell id="t33CJA8208JYHmQ1H5E5-34" value="Gestión devolución" style="ellipse;whiteSpace=wrap;html=1;" parent="1" vertex="1">
          <mxGeometry x="1020" y="280" width="120" height="80" as="geometry" />
        </mxCell>
        <mxCell id="t33CJA8208JYHmQ1H5E5-35" style="rounded=0;orthogonalLoop=1;jettySize=auto;html=1;entryX=0;entryY=1;entryDx=0;entryDy=0;entryPerimeter=0;endArrow=none;endFill=0;" parent="1" source="t33CJA8208JYHmQ1H5E5-34" target="t33CJA8208JYHmQ1H5E5-8" edge="1">
          <mxGeometry relative="1" as="geometry">
            <mxPoint x="1246" y="370" as="targetPoint" />
          </mxGeometry>
        </mxCell>
        <mxCell id="t33CJA8208JYHmQ1H5E5-36" style="rounded=0;orthogonalLoop=1;jettySize=auto;html=1;exitX=1;exitY=0.5;exitDx=0;exitDy=0;entryX=0;entryY=0.5;entryDx=0;entryDy=0;dashed=1;startArrow=classic;startFill=1;endArrow=none;endFill=0;" parent="1" source="t33CJA8208JYHmQ1H5E5-28" target="t33CJA8208JYHmQ1H5E5-34" edge="1">
          <mxGeometry relative="1" as="geometry">
            <mxPoint x="910" y="310" as="sourcePoint" />
            <mxPoint x="1110" y="480" as="targetPoint" />
          </mxGeometry>
        </mxCell>
        <mxCell id="t33CJA8208JYHmQ1H5E5-37" value="&amp;lt;&amp;lt; extend &amp;gt;&amp;gt;" style="edgeLabel;html=1;align=center;verticalAlign=middle;resizable=0;points=[];" parent="t33CJA8208JYHmQ1H5E5-36" vertex="1" connectable="0">
          <mxGeometry x="0.0869" y="-2" relative="1" as="geometry">
            <mxPoint as="offset" />
          </mxGeometry>
        </mxCell>
        <mxCell id="t33CJA8208JYHmQ1H5E5-38" style="rounded=0;orthogonalLoop=1;jettySize=auto;html=1;exitX=1;exitY=0.5;exitDx=0;exitDy=0;entryX=0;entryY=0.5;entryDx=0;entryDy=0;dashed=1;startArrow=classic;startFill=1;endArrow=none;endFill=0;" parent="1" source="t33CJA8208JYHmQ1H5E5-29" target="t33CJA8208JYHmQ1H5E5-34" edge="1">
          <mxGeometry relative="1" as="geometry">
            <mxPoint x="910" y="440" as="sourcePoint" />
            <mxPoint x="1110" y="489.5" as="targetPoint" />
          </mxGeometry>
        </mxCell>
        <mxCell id="t33CJA8208JYHmQ1H5E5-39" value="&amp;lt;&amp;lt; extend &amp;gt;&amp;gt;" style="edgeLabel;html=1;align=center;verticalAlign=middle;resizable=0;points=[];" parent="t33CJA8208JYHmQ1H5E5-38" vertex="1" connectable="0">
          <mxGeometry x="0.0869" y="-2" relative="1" as="geometry">
            <mxPoint as="offset" />
          </mxGeometry>
        </mxCell>
        <mxCell id="t33CJA8208JYHmQ1H5E5-41" value="Gestionar multa" style="ellipse;whiteSpace=wrap;html=1;" parent="1" vertex="1">
          <mxGeometry x="550" y="395" width="120" height="80" as="geometry" />
        </mxCell>
        <mxCell id="t33CJA8208JYHmQ1H5E5-45" value="Gestión multas" style="ellipse;whiteSpace=wrap;html=1;" parent="1" vertex="1">
          <mxGeometry x="1350" y="190" width="120" height="80" as="geometry" />
        </mxCell>
        <mxCell id="t33CJA8208JYHmQ1H5E5-46" style="rounded=0;orthogonalLoop=1;jettySize=auto;html=1;endArrow=none;endFill=0;entryX=1;entryY=1;entryDx=0;entryDy=0;entryPerimeter=0;" parent="1" source="t33CJA8208JYHmQ1H5E5-45" target="t33CJA8208JYHmQ1H5E5-8" edge="1">
          <mxGeometry relative="1" as="geometry">
            <mxPoint x="1231" y="305" as="targetPoint" />
          </mxGeometry>
        </mxCell>
        <mxCell id="t33CJA8208JYHmQ1H5E5-50" style="rounded=0;orthogonalLoop=1;jettySize=auto;html=1;entryX=0.5;entryY=1;entryDx=0;entryDy=0;dashed=1;" parent="1" source="t33CJA8208JYHmQ1H5E5-47" target="t33CJA8208JYHmQ1H5E5-45" edge="1">
          <mxGeometry relative="1" as="geometry" />
        </mxCell>
        <mxCell id="R5uc6-CQnrBGBFZ5KooZ-5" value="&lt;span style=&quot;color: rgba(0, 0, 0, 0); font-family: monospace; font-size: 0px; text-align: start; background-color: rgb(27, 29, 30);&quot;&gt;%3CmxGraphModel%3E%3Croot%3E%3CmxCell%20id%3D%220%22%2F%3E%3CmxCell%20id%3D%221%22%20parent%3D%220%22%2F%3E%3CmxCell%20id%3D%222%22%20value%3D%22%26amp%3Blt%3B%26amp%3Blt%3B%20extend%20%26amp%3Bgt%3B%26amp%3Bgt%3B%22%20style%3D%22edgeLabel%3Bhtml%3D1%3Balign%3Dcenter%3BverticalAlign%3Dmiddle%3Bresizable%3D0%3Bpoints%3D%5B%5D%3B%22%20vertex%3D%221%22%20connectable%3D%220%22%20parent%3D%221%22%3E%3CmxGeometry%20x%3D%22425.43578920606546%22%20y%3D%22556.7889875418864%22%20as%3D%22geometry%22%2F%3E%3C%2FmxCell%3E%3C%2Froot%3E%3C%2FmxGraphModel%3E&lt;/span&gt;" style="edgeLabel;html=1;align=center;verticalAlign=middle;resizable=0;points=[];" parent="t33CJA8208JYHmQ1H5E5-50" vertex="1" connectable="0">
          <mxGeometry x="-0.0526" relative="1" as="geometry">
            <mxPoint as="offset" />
          </mxGeometry>
        </mxCell>
        <mxCell id="R5uc6-CQnrBGBFZ5KooZ-6" value="&amp;lt;&amp;lt; extend &amp;gt;&amp;gt;" style="edgeLabel;html=1;align=center;verticalAlign=middle;resizable=0;points=[];" parent="t33CJA8208JYHmQ1H5E5-50" vertex="1" connectable="0">
          <mxGeometry x="0.0447" relative="1" as="geometry">
            <mxPoint as="offset" />
          </mxGeometry>
        </mxCell>
        <mxCell id="t33CJA8208JYHmQ1H5E5-47" value="Registrar multa" style="ellipse;whiteSpace=wrap;html=1;" parent="1" vertex="1">
          <mxGeometry x="1250" y="370" width="120" height="80" as="geometry" />
        </mxCell>
        <mxCell id="t33CJA8208JYHmQ1H5E5-49" style="rounded=0;orthogonalLoop=1;jettySize=auto;html=1;entryX=0.5;entryY=1;entryDx=0;entryDy=0;dashed=1;" parent="1" source="t33CJA8208JYHmQ1H5E5-48" target="t33CJA8208JYHmQ1H5E5-45" edge="1">
          <mxGeometry relative="1" as="geometry" />
        </mxCell>
        <mxCell id="R5uc6-CQnrBGBFZ5KooZ-7" value="&amp;lt;&amp;lt; extend &amp;gt;&amp;gt;" style="edgeLabel;html=1;align=center;verticalAlign=middle;resizable=0;points=[];" parent="t33CJA8208JYHmQ1H5E5-49" vertex="1" connectable="0">
          <mxGeometry x="0.2142" y="2" relative="1" as="geometry">
            <mxPoint as="offset" />
          </mxGeometry>
        </mxCell>
        <mxCell id="t33CJA8208JYHmQ1H5E5-48" value="Calcular multa" style="ellipse;whiteSpace=wrap;html=1;" parent="1" vertex="1">
          <mxGeometry x="1460" y="380" width="120" height="80" as="geometry" />
        </mxCell>
        <mxCell id="R5uc6-CQnrBGBFZ5KooZ-2" value="Pagar multa" style="ellipse;whiteSpace=wrap;html=1;" parent="1" vertex="1">
          <mxGeometry x="770" y="560" width="120" height="80" as="geometry" />
        </mxCell>
        <mxCell id="R5uc6-CQnrBGBFZ5KooZ-3" style="rounded=0;orthogonalLoop=1;jettySize=auto;html=1;exitX=1;exitY=1;exitDx=0;exitDy=0;entryX=0;entryY=0.5;entryDx=0;entryDy=0;dashed=1;startArrow=classic;startFill=1;endArrow=none;endFill=0;" parent="1" source="t33CJA8208JYHmQ1H5E5-41" target="R5uc6-CQnrBGBFZ5KooZ-2" edge="1">
          <mxGeometry relative="1" as="geometry">
            <mxPoint x="380" y="413" as="sourcePoint" />
            <mxPoint x="528" y="505" as="targetPoint" />
          </mxGeometry>
        </mxCell>
        <mxCell id="R5uc6-CQnrBGBFZ5KooZ-4" value="&amp;lt;&amp;lt; extend &amp;gt;&amp;gt;" style="edgeLabel;html=1;align=center;verticalAlign=middle;resizable=0;points=[];" parent="R5uc6-CQnrBGBFZ5KooZ-3" vertex="1" connectable="0">
          <mxGeometry x="0.0869" y="-2" relative="1" as="geometry">
            <mxPoint as="offset" />
          </mxGeometry>
        </mxCell>
        <mxCell id="R5uc6-CQnrBGBFZ5KooZ-39" style="rounded=0;orthogonalLoop=1;jettySize=auto;html=1;exitX=0.5;exitY=0.5;exitDx=0;exitDy=0;exitPerimeter=0;entryX=0;entryY=0.5;entryDx=0;entryDy=0;endArrow=none;endFill=0;" parent="1" source="R5uc6-CQnrBGBFZ5KooZ-24" target="R5uc6-CQnrBGBFZ5KooZ-27" edge="1">
          <mxGeometry relative="1" as="geometry" />
        </mxCell>
        <mxCell id="R5uc6-CQnrBGBFZ5KooZ-41" style="rounded=0;orthogonalLoop=1;jettySize=auto;html=1;exitX=0.5;exitY=0.5;exitDx=0;exitDy=0;exitPerimeter=0;entryX=0;entryY=0.5;entryDx=0;entryDy=0;endArrow=none;endFill=0;" parent="1" source="R5uc6-CQnrBGBFZ5KooZ-24" target="R5uc6-CQnrBGBFZ5KooZ-40" edge="1">
          <mxGeometry relative="1" as="geometry" />
        </mxCell>
        <mxCell id="R5uc6-CQnrBGBFZ5KooZ-24" value="Bibliotecario" style="shape=umlActor;verticalLabelPosition=bottom;verticalAlign=top;html=1;" parent="1" vertex="1">
          <mxGeometry x="50" y="720" width="30" height="60" as="geometry" />
        </mxCell>
        <mxCell id="R5uc6-CQnrBGBFZ5KooZ-43" style="rounded=0;orthogonalLoop=1;jettySize=auto;html=1;exitX=1;exitY=0;exitDx=0;exitDy=0;entryX=0.5;entryY=1;entryDx=0;entryDy=0;dashed=1;" parent="1" source="R5uc6-CQnrBGBFZ5KooZ-27" target="RJvG36Jgqyz68Tepp9Q1-2" edge="1">
          <mxGeometry relative="1" as="geometry" />
        </mxCell>
        <mxCell id="R5uc6-CQnrBGBFZ5KooZ-46" value="&amp;lt;&amp;lt; include &amp;gt;&amp;gt;" style="edgeLabel;html=1;align=center;verticalAlign=middle;resizable=0;points=[];" parent="R5uc6-CQnrBGBFZ5KooZ-43" vertex="1" connectable="0">
          <mxGeometry x="0.286" y="-4" relative="1" as="geometry">
            <mxPoint as="offset" />
          </mxGeometry>
        </mxCell>
        <mxCell id="R5uc6-CQnrBGBFZ5KooZ-27" value="Administración libro" style="ellipse;whiteSpace=wrap;html=1;" parent="1" vertex="1">
          <mxGeometry x="210" y="840" width="120" height="80" as="geometry" />
        </mxCell>
        <mxCell id="R5uc6-CQnrBGBFZ5KooZ-28" style="rounded=0;orthogonalLoop=1;jettySize=auto;html=1;entryX=0.5;entryY=1;entryDx=0;entryDy=0;dashed=1;" parent="1" source="R5uc6-CQnrBGBFZ5KooZ-31" target="R5uc6-CQnrBGBFZ5KooZ-27" edge="1">
          <mxGeometry relative="1" as="geometry">
            <mxPoint x="232" y="808" as="targetPoint" />
          </mxGeometry>
        </mxCell>
        <mxCell id="R5uc6-CQnrBGBFZ5KooZ-29" value="&lt;span style=&quot;color: rgba(0, 0, 0, 0); font-family: monospace; font-size: 0px; text-align: start; background-color: rgb(27, 29, 30);&quot;&gt;%3CmxGraphModel%3E%3Croot%3E%3CmxCell%20id%3D%220%22%2F%3E%3CmxCell%20id%3D%221%22%20parent%3D%220%22%2F%3E%3CmxCell%20id%3D%222%22%20value%3D%22%26amp%3Blt%3B%26amp%3Blt%3B%20extend%20%26amp%3Bgt%3B%26amp%3Bgt%3B%22%20style%3D%22edgeLabel%3Bhtml%3D1%3Balign%3Dcenter%3BverticalAlign%3Dmiddle%3Bresizable%3D0%3Bpoints%3D%5B%5D%3B%22%20vertex%3D%221%22%20connectable%3D%220%22%20parent%3D%221%22%3E%3CmxGeometry%20x%3D%22425.43578920606546%22%20y%3D%22556.7889875418864%22%20as%3D%22geometry%22%2F%3E%3C%2FmxCell%3E%3C%2Froot%3E%3C%2FmxGraphModel%3E&lt;/span&gt;" style="edgeLabel;html=1;align=center;verticalAlign=middle;resizable=0;points=[];" parent="R5uc6-CQnrBGBFZ5KooZ-28" vertex="1" connectable="0">
          <mxGeometry x="-0.0526" relative="1" as="geometry">
            <mxPoint as="offset" />
          </mxGeometry>
        </mxCell>
        <mxCell id="R5uc6-CQnrBGBFZ5KooZ-30" value="&amp;lt;&amp;lt; extend &amp;gt;&amp;gt;" style="edgeLabel;html=1;align=center;verticalAlign=middle;resizable=0;points=[];" parent="R5uc6-CQnrBGBFZ5KooZ-28" vertex="1" connectable="0">
          <mxGeometry x="0.0447" relative="1" as="geometry">
            <mxPoint as="offset" />
          </mxGeometry>
        </mxCell>
        <mxCell id="R5uc6-CQnrBGBFZ5KooZ-31" value="Modificar libro" style="ellipse;whiteSpace=wrap;html=1;" parent="1" vertex="1">
          <mxGeometry x="370" y="1040" width="120" height="80" as="geometry" />
        </mxCell>
        <mxCell id="R5uc6-CQnrBGBFZ5KooZ-32" style="rounded=0;orthogonalLoop=1;jettySize=auto;html=1;dashed=1;entryX=1;entryY=1;entryDx=0;entryDy=0;exitX=0;exitY=0.5;exitDx=0;exitDy=0;" parent="1" source="R5uc6-CQnrBGBFZ5KooZ-34" target="R5uc6-CQnrBGBFZ5KooZ-27" edge="1">
          <mxGeometry relative="1" as="geometry">
            <mxPoint x="340" y="770" as="targetPoint" />
            <mxPoint x="438.2550529707505" y="829.7519772494243" as="sourcePoint" />
          </mxGeometry>
        </mxCell>
        <mxCell id="R5uc6-CQnrBGBFZ5KooZ-33" value="&amp;lt;&amp;lt; extend &amp;gt;&amp;gt;" style="edgeLabel;html=1;align=center;verticalAlign=middle;resizable=0;points=[];" parent="R5uc6-CQnrBGBFZ5KooZ-32" vertex="1" connectable="0">
          <mxGeometry x="0.2142" y="2" relative="1" as="geometry">
            <mxPoint as="offset" />
          </mxGeometry>
        </mxCell>
        <mxCell id="R5uc6-CQnrBGBFZ5KooZ-34" value="Añadir libro" style="ellipse;whiteSpace=wrap;html=1;" parent="1" vertex="1">
          <mxGeometry x="600" y="980" width="120" height="80" as="geometry" />
        </mxCell>
        <mxCell id="R5uc6-CQnrBGBFZ5KooZ-35" style="rounded=0;orthogonalLoop=1;jettySize=auto;html=1;entryX=0;entryY=1;entryDx=0;entryDy=0;dashed=1;" parent="1" source="R5uc6-CQnrBGBFZ5KooZ-38" target="R5uc6-CQnrBGBFZ5KooZ-27" edge="1">
          <mxGeometry relative="1" as="geometry">
            <mxPoint x="-40" y="958" as="targetPoint" />
          </mxGeometry>
        </mxCell>
        <mxCell id="R5uc6-CQnrBGBFZ5KooZ-36" value="&lt;span style=&quot;color: rgba(0, 0, 0, 0); font-family: monospace; font-size: 0px; text-align: start; background-color: rgb(27, 29, 30);&quot;&gt;%3CmxGraphModel%3E%3Croot%3E%3CmxCell%20id%3D%220%22%2F%3E%3CmxCell%20id%3D%221%22%20parent%3D%220%22%2F%3E%3CmxCell%20id%3D%222%22%20value%3D%22%26amp%3Blt%3B%26amp%3Blt%3B%20extend%20%26amp%3Bgt%3B%26amp%3Bgt%3B%22%20style%3D%22edgeLabel%3Bhtml%3D1%3Balign%3Dcenter%3BverticalAlign%3Dmiddle%3Bresizable%3D0%3Bpoints%3D%5B%5D%3B%22%20vertex%3D%221%22%20connectable%3D%220%22%20parent%3D%221%22%3E%3CmxGeometry%20x%3D%22425.43578920606546%22%20y%3D%22556.7889875418864%22%20as%3D%22geometry%22%2F%3E%3C%2FmxCell%3E%3C%2Froot%3E%3C%2FmxGraphModel%3E&lt;/span&gt;" style="edgeLabel;html=1;align=center;verticalAlign=middle;resizable=0;points=[];" parent="R5uc6-CQnrBGBFZ5KooZ-35" vertex="1" connectable="0">
          <mxGeometry x="-0.0526" relative="1" as="geometry">
            <mxPoint as="offset" />
          </mxGeometry>
        </mxCell>
        <mxCell id="R5uc6-CQnrBGBFZ5KooZ-37" value="&amp;lt;&amp;lt; extend &amp;gt;&amp;gt;" style="edgeLabel;html=1;align=center;verticalAlign=middle;resizable=0;points=[];" parent="R5uc6-CQnrBGBFZ5KooZ-35" vertex="1" connectable="0">
          <mxGeometry x="0.0447" relative="1" as="geometry">
            <mxPoint as="offset" />
          </mxGeometry>
        </mxCell>
        <mxCell id="R5uc6-CQnrBGBFZ5KooZ-38" value="Eliminar libro" style="ellipse;whiteSpace=wrap;html=1;" parent="1" vertex="1">
          <mxGeometry x="190" y="1050" width="120" height="80" as="geometry" />
        </mxCell>
        <mxCell id="R5uc6-CQnrBGBFZ5KooZ-42" style="rounded=0;orthogonalLoop=1;jettySize=auto;html=1;exitX=1;exitY=0;exitDx=0;exitDy=0;entryX=0;entryY=1;entryDx=0;entryDy=0;dashed=1;" parent="1" source="R5uc6-CQnrBGBFZ5KooZ-40" target="RJvG36Jgqyz68Tepp9Q1-2" edge="1">
          <mxGeometry relative="1" as="geometry" />
        </mxCell>
        <mxCell id="R5uc6-CQnrBGBFZ5KooZ-45" value="&amp;lt;&amp;lt; include &amp;gt;&amp;gt;" style="edgeLabel;html=1;align=center;verticalAlign=middle;resizable=0;points=[];" parent="R5uc6-CQnrBGBFZ5KooZ-42" vertex="1" connectable="0">
          <mxGeometry x="0.1495" y="-2" relative="1" as="geometry">
            <mxPoint as="offset" />
          </mxGeometry>
        </mxCell>
        <mxCell id="R5uc6-CQnrBGBFZ5KooZ-40" value="Generar reportes" style="ellipse;whiteSpace=wrap;html=1;" parent="1" vertex="1">
          <mxGeometry x="240" y="680" width="120" height="80" as="geometry" />
        </mxCell>
        <mxCell id="R5uc6-CQnrBGBFZ5KooZ-50" style="rounded=0;orthogonalLoop=1;jettySize=auto;html=1;exitX=1;exitY=0.5;exitDx=0;exitDy=0;entryX=0;entryY=0.5;entryDx=0;entryDy=0;dashed=1;" parent="1" source="R5uc6-CQnrBGBFZ5KooZ-47" target="R5uc6-CQnrBGBFZ5KooZ-48" edge="1">
          <mxGeometry relative="1" as="geometry" />
        </mxCell>
        <mxCell id="R5uc6-CQnrBGBFZ5KooZ-51" value="&amp;lt;&amp;lt; include &amp;gt;&amp;gt;" style="edgeLabel;html=1;align=center;verticalAlign=middle;resizable=0;points=[];" parent="R5uc6-CQnrBGBFZ5KooZ-50" vertex="1" connectable="0">
          <mxGeometry x="0.1125" y="2" relative="1" as="geometry">
            <mxPoint as="offset" />
          </mxGeometry>
        </mxCell>
        <mxCell id="R5uc6-CQnrBGBFZ5KooZ-47" value="Registrarse" style="ellipse;whiteSpace=wrap;html=1;" parent="1" vertex="1">
          <mxGeometry x="260" y="-320" width="120" height="80" as="geometry" />
        </mxCell>
        <mxCell id="R5uc6-CQnrBGBFZ5KooZ-48" value="Asignar nº identificación" style="ellipse;whiteSpace=wrap;html=1;" parent="1" vertex="1">
          <mxGeometry x="1020" y="-320" width="120" height="80" as="geometry" />
        </mxCell>
        <mxCell id="R5uc6-CQnrBGBFZ5KooZ-54" value="Gestión de búsqueda" style="ellipse;whiteSpace=wrap;html=1;" parent="1" vertex="1">
          <mxGeometry x="990" y="-150" width="120" height="80" as="geometry" />
        </mxCell>
        <mxCell id="R5uc6-CQnrBGBFZ5KooZ-55" value="Disponibilidad" style="ellipse;whiteSpace=wrap;html=1;" parent="1" vertex="1">
          <mxGeometry x="690" y="-220" width="120" height="80" as="geometry" />
        </mxCell>
        <mxCell id="R5uc6-CQnrBGBFZ5KooZ-56" value="Ubicación" style="ellipse;whiteSpace=wrap;html=1;" parent="1" vertex="1">
          <mxGeometry x="690" y="-120" width="120" height="80" as="geometry" />
        </mxCell>
        <mxCell id="R5uc6-CQnrBGBFZ5KooZ-61" style="rounded=0;orthogonalLoop=1;jettySize=auto;html=1;exitX=1;exitY=0.5;exitDx=0;exitDy=0;dashed=1;startArrow=classic;startFill=1;endArrow=none;endFill=0;entryX=0;entryY=0.5;entryDx=0;entryDy=0;" parent="1" source="R5uc6-CQnrBGBFZ5KooZ-55" target="R5uc6-CQnrBGBFZ5KooZ-54" edge="1">
          <mxGeometry relative="1" as="geometry">
            <mxPoint x="860" y="-170" as="sourcePoint" />
            <mxPoint x="990" y="-80" as="targetPoint" />
          </mxGeometry>
        </mxCell>
        <mxCell id="R5uc6-CQnrBGBFZ5KooZ-62" value="&amp;lt;&amp;lt; include&amp;gt;&amp;gt;" style="edgeLabel;html=1;align=center;verticalAlign=middle;resizable=0;points=[];" parent="R5uc6-CQnrBGBFZ5KooZ-61" vertex="1" connectable="0">
          <mxGeometry x="0.0869" y="-2" relative="1" as="geometry">
            <mxPoint as="offset" />
          </mxGeometry>
        </mxCell>
        <mxCell id="R5uc6-CQnrBGBFZ5KooZ-63" style="rounded=0;orthogonalLoop=1;jettySize=auto;html=1;exitX=1;exitY=0.5;exitDx=0;exitDy=0;entryX=0;entryY=0.5;entryDx=0;entryDy=0;dashed=1;startArrow=classic;startFill=1;endArrow=none;endFill=0;" parent="1" source="R5uc6-CQnrBGBFZ5KooZ-56" target="R5uc6-CQnrBGBFZ5KooZ-54" edge="1">
          <mxGeometry relative="1" as="geometry">
            <mxPoint x="860" y="-40" as="sourcePoint" />
            <mxPoint x="960" y="-110" as="targetPoint" />
          </mxGeometry>
        </mxCell>
        <mxCell id="R5uc6-CQnrBGBFZ5KooZ-64" value="&amp;lt;&amp;lt; include&amp;gt;&amp;gt;" style="edgeLabel;html=1;align=center;verticalAlign=middle;resizable=0;points=[];" parent="R5uc6-CQnrBGBFZ5KooZ-63" vertex="1" connectable="0">
          <mxGeometry x="0.0869" y="-2" relative="1" as="geometry">
            <mxPoint as="offset" />
          </mxGeometry>
        </mxCell>
        <mxCell id="R5uc6-CQnrBGBFZ5KooZ-67" value="Recomendar libros" style="ellipse;whiteSpace=wrap;html=1;" parent="1" vertex="1">
          <mxGeometry x="870" y="-50" width="120" height="80" as="geometry" />
        </mxCell>
        <mxCell id="R5uc6-CQnrBGBFZ5KooZ-70" style="edgeStyle=orthogonalEdgeStyle;rounded=0;orthogonalLoop=1;jettySize=auto;html=1;exitX=0.5;exitY=1;exitDx=0;exitDy=0;" parent="1" edge="1">
          <mxGeometry relative="1" as="geometry">
            <mxPoint x="1210" y="740" as="targetPoint" />
            <mxPoint x="1210" y="740" as="sourcePoint" />
          </mxGeometry>
        </mxCell>
        <mxCell id="Hn9pBRJLNFqxEXgLAd93-5" style="rounded=0;orthogonalLoop=1;jettySize=auto;html=1;exitX=0.417;exitY=0;exitDx=0;exitDy=0;dashed=1;entryX=1;entryY=1;entryDx=0;entryDy=0;exitPerimeter=0;" parent="1" source="t33CJA8208JYHmQ1H5E5-9" target="R5uc6-CQnrBGBFZ5KooZ-67" edge="1">
          <mxGeometry relative="1" as="geometry">
            <mxPoint x="960" y="40" as="sourcePoint" />
            <mxPoint x="1100" y="30" as="targetPoint" />
          </mxGeometry>
        </mxCell>
        <mxCell id="Hn9pBRJLNFqxEXgLAd93-6" value="&amp;lt;&amp;lt; include &amp;gt;&amp;gt;" style="edgeLabel;html=1;align=center;verticalAlign=middle;resizable=0;points=[];" parent="Hn9pBRJLNFqxEXgLAd93-5" vertex="1" connectable="0">
          <mxGeometry x="-0.1135" y="1" relative="1" as="geometry">
            <mxPoint as="offset" />
          </mxGeometry>
        </mxCell>
      </root>
    </mxGraphModel>
  </diagram>
</mxfile>
